<svg xmlns="http://www.w3.org/2000/svg" xmlns:svg="http://www.w3.org/2000/svg" id="Layer_1" x="0" y="0" version="1.1" viewBox="0 0 500 500" xml:space="preserve" style="enable-background:new 0 0 500 500"><style id="style2" type="text/css">.st0{fill:#39b54a}.st1{fill:#1c75bc}</style><g id="layer1"><rect style="fill:#00d4aa;stroke-width:1.01258" id="rect3264" width="417.526" height="61.856" x="40.664" y="219.072" ry="2.577"/><rect style="fill:#fc0" id="rect3746" width="424.399" height="74.456" x="34.937" y="47.546" ry="2.577"/><rect style="fill:#b380ff;stroke-width:1.04573" id="rect4018" width="417.526" height="66.438" x="38.373" y="379.716" ry="2.718"/></g><g id="layer2" style="display:inline"><g id="g14" transform="matrix(1.3876941,0,0,1.3876941,-92.482904,-57.45223)"><path id="path4" d="M 397.58218,54.860647 H 96.01783 c -7.875842,0 -14.267819,6.39198 -14.267819,14.267808 v 68.028895 c 0,7.87582 6.391977,14.26779 14.267819,14.26779 h 301.56435 c 7.87584,0 14.26781,-6.39197 14.26781,-14.26779 V 69.128455 C 411.73586,61.252627 405.45802,54.860647 397.58218,54.860647 Z M 206.27944,109.8773 c 0,3.42427 -2.73943,6.16369 -6.16369,6.16369 h -87.66141 c -3.42427,0 -6.16369,-2.73942 -6.16369,-6.16369 V 96.408496 c 0,-3.42428 2.73942,-6.16368 6.16369,-6.16368 h 87.66141 c 3.42426,0 6.16369,2.7394 6.16369,6.16368 z m 112.08789,9.7021 c -9.13141,0 -16.43652,-7.41926 -16.43652,-16.43651 0,-9.131384 7.41926,-16.436504 16.43652,-16.436504 9.13139,0 16.4365,7.30512 16.4365,16.436504 0.11414,9.13141 -7.30511,16.43651 -16.4365,16.43651 z m 52.39138,0 c -9.1314,0 -16.43652,-7.41926 -16.43652,-16.43651 0,-9.131384 7.41927,-16.436504 16.43652,-16.436504 9.1314,0 16.43651,7.30512 16.43651,16.436504 0,9.13141 -7.30511,16.43651 -16.43651,16.43651 z" class="st0" style="fill:#f60;stroke-width:1.14143"/><path id="path4-0" d="M 397.58218,291.64573 H 96.01783 c -7.875842,0 -14.267819,6.39197 -14.267819,14.26781 v 68.02889 c 0,7.87584 6.391977,14.26781 14.267819,14.26781 h 301.56435 c 7.87584,0 14.26781,-6.39197 14.26781,-14.26781 v -68.02889 c -0.11413,-7.87584 -6.39197,-14.26781 -14.26781,-14.26781 z M 206.27944,346.6624 c 0,3.42426 -2.73943,6.16368 -6.16369,6.16368 h -87.66141 c -3.42427,0 -6.16369,-2.73942 -6.16369,-6.16368 v -13.46881 c 0,-3.42427 2.73942,-6.16371 6.16369,-6.16371 h 87.66141 c 3.42426,0 6.16369,2.73944 6.16369,6.16371 z m 112.08789,9.7021 c -9.13141,0 -16.43652,-7.41927 -16.43652,-16.43652 0,-9.13137 7.41926,-16.43651 16.43652,-16.43651 9.13139,0 16.4365,7.30514 16.4365,16.43651 0.11414,9.13141 -7.30511,16.43652 -16.4365,16.43652 z m 52.39138,0 c -9.1314,0 -16.43652,-7.41927 -16.43652,-16.43652 0,-9.13137 7.41927,-16.43651 16.43652,-16.43651 9.1314,0 16.43651,7.30514 16.43651,16.43651 0,9.13141 -7.30511,16.43652 -16.43651,16.43652 z" class="st0" style="display:inline;fill:#330080;stroke-width:1.14143"/><path id="path6" d="M 397.58218,173.27394 H 96.017832 c -7.875842,0 -14.267819,6.39197 -14.267819,14.2678 v 68.0289 c 0,7.87584 6.391977,14.26781 14.267819,14.26781 H 397.58218 c 7.87584,0 14.26781,-6.39197 14.26781,-14.26781 v -68.0289 c -0.11413,-7.87583 -6.39197,-14.2678 -14.26781,-14.2678 z m -191.30274,55.01665 c 0,3.42428 -2.73943,6.1637 -6.16369,6.1637 h -87.66141 c -3.42427,0 -6.16369,-2.73942 -6.16369,-6.1637 v -13.46881 c 0,-3.42427 2.73942,-6.16368 6.16369,-6.16368 h 87.66141 c 3.42426,0 6.16369,2.73941 6.16369,6.16368 z m 112.08789,9.70211 c -9.13141,0 -16.43652,-7.41925 -16.43652,-16.43652 0,-9.13138 7.41926,-16.4365 16.43652,-16.4365 9.13139,0 16.4365,7.30512 16.4365,16.4365 0.11414,9.01727 -7.30511,16.43652 -16.4365,16.43652 z m 52.39138,0 c -9.1314,0 -16.43652,-7.41925 -16.43652,-16.43652 0,-9.13138 7.41927,-16.4365 16.43652,-16.4365 9.1314,0 16.43651,7.30512 16.43651,16.4365 0,9.01727 -7.30511,16.43652 -16.43651,16.43652 z" class="st1" style="fill:#08a;stroke-width:1.14143"/></g></g></svg>