<svg xmlns="http://www.w3.org/2000/svg" xmlns:svg="http://www.w3.org/2000/svg" xmlns:xlink="http://www.w3.org/1999/xlink" id="svg85" width="128" height="128" data-name="Layer 1" version="1.1" viewBox="0 0 128 128"><defs id="defs39"><style id="style2">.cls-1{fill:url(#linear-gradient)}.cls-2{opacity:.5;fill:url(#linear-gradient-2)}.cls-3{fill:url(#linear-gradient-3)}.cls-4{fill:url(#linear-gradient-4)}.cls-5{fill:url(#linear-gradient-5)}.cls-6{fill:url(#linear-gradient-6)}.cls-7{fill:url(#linear-gradient-7)}.cls-8{fill:url(#linear-gradient-8)}.cls-9{fill:url(#linear-gradient-9)}.cls-10{fill:url(#linear-gradient-10)}.cls-11{fill:url(#linear-gradient-11)}.cls-12{fill:url(#linear-gradient-12)}.cls-13{fill:url(#linear-gradient-13)}.cls-14{fill:url(#linear-gradient-14)}.cls-15{fill:url(#linear-gradient-15)}.cls-16{fill:url(#linear-gradient-16)}.cls-17{fill:url(#linear-gradient-17)}.cls-18{fill:url(#linear-gradient-18)}.cls-19{fill:url(#linear-gradient-19)}.cls-20{fill:url(#linear-gradient-20)}.cls-21{fill:url(#linear-gradient-21)}.cls-22{fill:url(#linear-gradient-22)}</style><linearGradient id="linear-gradient" x1="11.48" x2="119.8" y1="107.83" y2="-8.75" gradientTransform="rotate(-11.4,67.821942,62.573175)" gradientUnits="userSpaceOnUse"><stop id="stop4" offset="0" stop-color="#0032c3"/><stop id="stop6" offset=".42" stop-color="#0077ba"/><stop id="stop8" offset=".81" stop-color="#00b1b2"/><stop id="stop10" offset="1" stop-color="#00c8af"/></linearGradient><linearGradient id="linear-gradient-2" x1="-12.72" x2="90.24" y1="120.48" y2="18.59" gradientTransform="matrix(0.71141673,-0.90168627,0.92949105,0.69013203,-29.574086,80.547449)" xlink:href="#linear-gradient"/><linearGradient id="linear-gradient-3" x1="27.25" x2="118.94" y1="-6.51" y2="94.21" gradientUnits="userSpaceOnUse"><stop id="stop14" offset="0" stop-color="#b1b7c2"/><stop id="stop16" offset="1" stop-color="#fff"/></linearGradient><linearGradient id="linear-gradient-4" x1="39.05" x2="130.74" y1="-17.25" y2="83.47" gradientTransform="translate(3.1132016,0.72565775)" xlink:href="#linear-gradient-3"/><linearGradient id="linear-gradient-5" x1="35.31" x2="127" y1="-13.85" y2="86.87" gradientTransform="translate(3.1132016,0.72565775)" xlink:href="#linear-gradient-3"/><linearGradient id="linear-gradient-6" x1="20.79" x2="112.48" y1="-.63" y2="100.09" gradientTransform="translate(3.1132016,0.72565775)" xlink:href="#linear-gradient-3"/><linearGradient id="linear-gradient-7" x1="20.03" x2="111.72" y1=".06" y2="100.78" gradientTransform="translate(3.1132016,0.72565775)" xlink:href="#linear-gradient-3"/><linearGradient id="linear-gradient-8" x1="31.83" x2="123.52" y1="-10.68" y2="90.04" gradientTransform="translate(3.1132016,0.72565775)" xlink:href="#linear-gradient-3"/><linearGradient id="linear-gradient-9" x1="28.09" x2="119.78" y1="-7.28" y2="93.44" gradientTransform="translate(3.1132016,0.72565775)" xlink:href="#linear-gradient-3"/><linearGradient id="linear-gradient-10" x1="13.57" x2="105.26" y1="5.95" y2="106.66" gradientTransform="translate(3.1132016,0.72565775)" xlink:href="#linear-gradient-3"/><linearGradient id="linear-gradient-11" x1="10.87" x2="102.56" y1="8.41" y2="109.12" gradientTransform="translate(3.1132016,0.72565775)" xlink:href="#linear-gradient-3"/><linearGradient id="linear-gradient-12" x1="7.12" x2="98.81" y1="11.81" y2="112.53" gradientTransform="matrix(1,0,0,0.914,3.1132016,6.5303577)" xlink:href="#linear-gradient-3"/><linearGradient id="linear-gradient-13" x1="14.81" x2="106.51" y1="4.81" y2="105.53" gradientTransform="translate(3.1131982,0.72565775)" xlink:href="#linear-gradient-3"/><linearGradient id="linear-gradient-14" x1="20.43" x2="112.12" y1="-.3" y2="100.41" gradientTransform="matrix(0.91386,0,0,0.961,9.0080016,3.1750578)" xlink:href="#linear-gradient-3"/><linearGradient id="linear-gradient-15" x1="-1.28" x2="90.41" y1="19.46" y2="120.18" gradientTransform="matrix(0.91271,0,0,0.94767,7.7361016,4.0122577)" xlink:href="#linear-gradient-3"/><linearGradient id="linear-gradient-16" x1="11.15" x2="102.84" y1="8.15" y2="108.87" gradientTransform="translate(3.1132016,0.72565775)" xlink:href="#linear-gradient-3"/><linearGradient id="linear-gradient-17" x1="18.31" x2="110" y1="1.63" y2="102.35" gradientTransform="translate(1.1132016,0.72565775)" xlink:href="#linear-gradient-3"/><linearGradient id="linear-gradient-18" x1="13.11" x2="104.8" y1="6.36" y2="107.08" gradientTransform="translate(1.1132016,0.72565775)" xlink:href="#linear-gradient-3"/><linearGradient id="linear-gradient-19" x1="1.74" x2="93.43" y1="16.71" y2="117.43" gradientTransform="translate(3.1132016,0.72565775)" xlink:href="#linear-gradient-3"/><linearGradient id="linear-gradient-20" x1="-3.46" x2="88.24" y1="21.44" y2="122.16" gradientTransform="translate(3.1132016,0.72565775)" xlink:href="#linear-gradient-3"/><linearGradient id="linear-gradient-21" x1="-14.83" x2="76.86" y1="31.8" y2="132.51" gradientTransform="translate(5.1132016,0.72565775)" xlink:href="#linear-gradient-3"/><linearGradient id="linear-gradient-22" x1="-20.02" x2="71.67" y1="36.53" y2="137.24" gradientTransform="translate(5.1132016,0.72565775)" xlink:href="#linear-gradient-3"/><linearGradient id="linearGradient958" x1="11.48" x2="119.8" y1="107.83" y2="-8.75" gradientTransform="matrix(1.0049,-0.20005,0.20263,0.99215,-13.358,15.112)" gradientUnits="userSpaceOnUse" xlink:href="#linear-gradient"/><linearGradient id="linearGradient904" x1="11.48" x2="119.8" y1="107.83" y2="-8.75" gradientTransform="matrix(1.0822545,-0.2171481,0.21822079,1.0769345,-15.273301,10.228926)" gradientUnits="userSpaceOnUse" xlink:href="#linear-gradient"/><linearGradient id="linearGradient906" x1="27.25" x2="118.94" y1="-6.51" y2="94.21" gradientTransform="translate(3.1132016,0.72565775)" gradientUnits="userSpaceOnUse" xlink:href="#linear-gradient-3"/></defs><path id="path41" fill="url(#linearGradient958)" stroke-width="1.122" d="M 23.524725,4.9991094 C 33.586687,-11.456954 117.03656,18.4307 126.71342,48.152464 136.39052,77.874228 68.763696,141.38701 42.324247,125.27591 19.371342,111.31039 -3.8089935,49.721277 23.524725,5.0002083 Z" class="cls-1" style="fill:url(#linearGradient904)"/><path id="path43" fill="url(#linear-gradient-2)" stroke-width="1.153" d="M 116.76964,102.26929 C 107.54611,119.41506 21.491323,122.10641 5.1626746,99.055867 -11.165975,76.005662 17.171998,21.582063 59.462417,5.4462492 104.83137,-11.949774 132.39598,73.211529 116.76964,102.26895 Z" class="cls-2" style="fill:url(#linear-gradient-2)"/><path id="path45" d="m 88.853202,38.865658 h -49.74 a 3.75,3.75 0 0 1 -3.75,-3.75 v -8 a 3.75,3.75 0 0 1 3.75,-3.75 h 49.74 a 3.75,3.75 0 0 1 3.75,3.75 v 8 a 3.75,3.75 0 0 1 -3.75,3.75 z m -49.74,-14.5 a 2.75,2.75 0 0 0 -2.75,2.75 v 8 a 2.75,2.75 0 0 0 2.75,2.75 h 49.74 a 2.75,2.75 0 0 0 2.75,-2.75 v -8 a 2.75,2.75 0 0 0 -2.75,-2.75 z" class="cls-3" style="fill:url(#linearGradient906)"/><path id="path47" d="m 85.533202,33.215658 a 2.1,2.1 0 1 1 2.11,-2.1 2.1,2.1 0 0 1 -2.11,2.1 z m 0,-3.2 a 1.1,1.1 0 1 0 1.11,1.1 1.1,1.1 0 0 0 -1.11,-1.1 z" class="cls-4" style="fill:url(#linear-gradient-4)"/><path id="path49" d="m 78.703202,33.215658 a 2.1,2.1 0 1 1 2.1,-2.1 2.1,2.1 0 0 1 -2.1,2.1 z m 0,-3.2 a 1.1,1.1 0 1 0 1.1,1.1 1.1,1.1 0 0 0 -1.1,-1.1 z" class="cls-5" style="fill:url(#linear-gradient-5)"/><path id="path51" d="m 63.493202,31.615658 h -22.71 a 0.5,0.5 0 0 1 -0.5,-0.5 0.51,0.51 0 0 1 0.5,-0.5 h 22.71 a 0.51,0.51 0 0 1 0.5,0.5 0.5,0.5 0 0 1 -0.5,0.5 z" class="cls-6" style="fill:url(#linear-gradient-6)"/><path id="path53" d="m 88.853202,53.375658 h -49.74 a 3.75,3.75 0 0 1 -3.75,-3.75 v -8 a 3.76,3.76 0 0 1 3.75,-3.76 h 49.74 a 3.76,3.76 0 0 1 3.75,3.76 v 8 a 3.75,3.75 0 0 1 -3.75,3.75 z m -49.74,-14.51 a 2.76,2.76 0 0 0 -2.75,2.76 v 8 a 2.75,2.75 0 0 0 2.75,2.75 h 49.74 a 2.75,2.75 0 0 0 2.75,-2.75 v -8 a 2.76,2.76 0 0 0 -2.75,-2.76 z" class="cls-7" style="fill:url(#linear-gradient-7)"/><path id="path55" d="m 85.533202,47.725658 a 2.11,2.11 0 1 1 2.11,-2.1 2.1,2.1 0 0 1 -2.11,2.1 z m 0,-3.21 a 1.11,1.11 0 1 0 1.11,1.11 1.11,1.11 0 0 0 -1.11,-1.11 z" class="cls-8" style="fill:url(#linear-gradient-8)"/><path id="path57" d="m 78.703202,47.725658 a 2.11,2.11 0 1 1 2.1,-2.1 2.1,2.1 0 0 1 -2.1,2.1 z m 0,-3.21 a 1.11,1.11 0 1 0 1.1,1.11 1.11,1.11 0 0 0 -1.1,-1.11 z" class="cls-9" style="fill:url(#linear-gradient-9)"/><path id="path59" d="m 63.493202,46.125658 h -22.71 a 0.51,0.51 0 0 1 -0.5,-0.5 0.5,0.5 0 0 1 0.5,-0.5 h 22.71 a 0.5,0.5 0 0 1 0.5,0.5 0.51,0.51 0 0 1 -0.5,0.5 z" class="cls-10" style="fill:url(#linear-gradient-10)"/><path id="path61" d="m 63.963202,69.225658 a 5.19,5.19 0 1 1 5.15,-5.19 5.2,5.2 0 0 1 -5.15,5.19 z m 0,-9.38 a 4.19,4.19 0 1 0 4.15,4.19 4.2,4.2 0 0 0 -4.15,-4.19 z" class="cls-11" style="fill:url(#linear-gradient-11);stroke-width:1"/><path id="path63" fill="url(#linear-gradient-12)" stroke-width=".956" d="m 63.963202,74.321658 a 0.5,0.457 0 0 1 -0.5,-0.457 v -5.1824 a 0.51,0.46614 0 0 1 0.5,-0.457 0.5,0.457 0 0 1 0.5,0.457 v 5.1824 a 0.5,0.457 0 0 1 -0.5,0.457 z" class="cls-12" style="fill:url(#linear-gradient-12)"/><path id="path65" d="m 63.963202,59.845658 a 0.51,0.51 0 0 1 -0.5,-0.5 v -6.47 a 0.5,0.5 0 0 1 0.5,-0.5 0.5,0.5 0 0 1 0.5,0.5 v 6.47 a 0.5,0.5 0 0 1 -0.5,0.5 z" class="cls-13" style="fill:url(#linear-gradient-13);stroke-width:1"/><path id="path67" fill="url(#linear-gradient-14)" stroke-width=".937" d="m 92.306202,74.452658 a 0.45693,0.4805 0 0 1 -0.45693,-0.4805 v -9.4755 h -22.947 a 0.45693,0.4805 0 0 1 0,-0.961 h 23.404 a 0.45693,0.4805 0 0 1 0.45693,0.4805 v 9.956 a 0.45693,0.4805 0 0 1 -0.45693,0.4805 z" class="cls-14" style="fill:url(#linear-gradient-14)"/><path id="path69" fill="url(#linear-gradient-15)" stroke-width=".93" d="m 35.619202,74.301658 a 0.45636,0.47384 0 0 1 -0.45636,-0.47384 v -9.8179 a 0.45636,0.47384 0 0 1 0.45636,-0.47384 h 23.375 a 0.45636,0.47384 0 0 1 0,0.94768 h -22.918 v 9.3441 a 0.45636,0.47384 0 0 1 -0.45636,0.47384 z" class="cls-15" style="fill:url(#linear-gradient-15)"/><path id="path71" d="m 63.113202,65.935658 a 0.5,0.5 0 0 1 -0.35,-0.14 l -1.13,-1.13 a 0.5,0.5 0 0 1 0,-0.71 0.5,0.5 0 0 1 0.7,0 l 0.78,0.77 2.46,-2.46 a 0.5,0.5 0 0 1 0.7,0 0.5,0.5 0 0 1 0,0.71 l -2.81,2.81 a 0.52,0.52 0 0 1 -0.35,0.15 z" class="cls-16" style="fill:url(#linear-gradient-16)"/><path id="path73" fill="url(#linear-gradient-17)" d="M 100.59319,90.845658 H 83.933202 a 3.35,3.35 0 0 1 -3.35,-3.34 v -10.27 a 3.35,3.35 0 0 1 3.35,-3.34 h 16.659988 a 3.35,3.35 0 0 1 3.35,3.34 v 10.27 a 3.35,3.35 0 0 1 -3.35,3.34 z m -16.659988,-16 a 2.35,2.35 0 0 0 -2.35,2.34 v 10.32 a 2.35,2.35 0 0 0 2.35,2.34 h 16.659988 a 2.35,2.35 0 0 0 2.35,-2.34 v -10.27 a 2.35,2.35 0 0 0 -2.35,-2.34 z" class="cls-17" style="fill:url(#linear-gradient-17)"/><path id="path75" fill="url(#linear-gradient-18)" d="m 98.333202,93.305658 h -12.14 a 0.5,0.5 0 0 1 -0.5,-0.5 0.5,0.5 0 0 1 0.5,-0.5 h 12.14 a 0.5,0.5 0 0 1 0.5,0.5 0.5,0.5 0 0 1 -0.5,0.5 z" class="cls-18" style="fill:url(#linear-gradient-18)"/><path id="path77" d="m 72.303202,90.845658 h -16.67 a 3.35,3.35 0 0 1 -3.35,-3.34 v -10.27 a 3.35,3.35 0 0 1 3.35,-3.34 h 16.67 a 3.35,3.35 0 0 1 3.34,3.34 v 10.27 a 3.35,3.35 0 0 1 -3.34,3.34 z m -16.67,-16 a 2.35,2.35 0 0 0 -2.35,2.34 v 10.32 a 2.35,2.35 0 0 0 2.35,2.34 h 16.67 a 2.34,2.34 0 0 0 2.34,-2.34 v -10.27 a 2.34,2.34 0 0 0 -2.34,-2.34 z" class="cls-19" style="fill:url(#linear-gradient-19)"/><path id="path79" d="m 70.043202,93.305658 h -12.15 a 0.5,0.5 0 0 1 -0.5,-0.5 0.5,0.5 0 0 1 0.5,-0.5 h 12.15 a 0.51,0.51 0 0 1 0.5,0.5 0.5,0.5 0 0 1 -0.5,0.5 z" class="cls-20" style="fill:url(#linear-gradient-20)"/><path id="path81" fill="url(#linear-gradient-21)" d="m 44.003202,90.845658 h -16.67 a 3.35,3.35 0 0 1 -3.34,-3.34 v -10.27 a 3.35,3.35 0 0 1 3.34,-3.34 h 16.67 a 3.35,3.35 0 0 1 3.34,3.34 v 10.27 a 3.35,3.35 0 0 1 -3.34,3.34 z m -16.67,-16 a 2.34,2.34 0 0 0 -2.34,2.34 v 10.32 a 2.34,2.34 0 0 0 2.34,2.34 h 16.67 a 2.34,2.34 0 0 0 2.34,-2.34 v -10.27 a 2.34,2.34 0 0 0 -2.34,-2.34 z" class="cls-21" style="fill:url(#linear-gradient-21)"/><path id="path83" fill="url(#linear-gradient-22)" d="m 41.743202,93.305658 h -12.15 a 0.5,0.5 0 0 1 -0.5,-0.5 0.51,0.51 0 0 1 0.5,-0.5 h 12.15 a 0.5,0.5 0 0 1 0.5,0.5 0.5,0.5 0 0 1 -0.5,0.5 z" class="cls-22" style="fill:url(#linear-gradient-22)"/></svg>