<svg xmlns="http://www.w3.org/2000/svg" xmlns:xlink="http://www.w3.org/1999/xlink" data-name="Layer 1" version="1.1" viewBox="0 0 125.15 125.15"><defs><style>.cls-1{fill:url(#linear-gradient)}.cls-2{opacity:.5;fill:url(#linear-gradient-2)}.cls-3{fill:url(#linear-gradient-3)}.cls-4{fill:url(#linear-gradient-4)}.cls-5{fill:url(#linear-gradient-5)}.cls-6{fill:url(#linear-gradient-6)}.cls-7{fill:url(#linear-gradient-7)}.cls-8{fill:url(#linear-gradient-8)}.cls-9{fill:url(#linear-gradient-9)}.cls-10{fill:url(#linear-gradient-10)}.cls-11{fill:url(#linear-gradient-11)}.cls-12{fill:url(#linear-gradient-12)}.cls-13{fill:url(#linear-gradient-13)}.cls-14{fill:url(#linear-gradient-14)}.cls-15{fill:url(#linear-gradient-15)}.cls-16{fill:url(#linear-gradient-16)}.cls-17{fill:url(#linear-gradient-17)}.cls-18{fill:url(#linear-gradient-18)}.cls-19{fill:url(#linear-gradient-19)}.cls-20{fill:url(#linear-gradient-20)}.cls-21{fill:url(#linear-gradient-21)}.cls-22{fill:url(#linear-gradient-22)}</style><linearGradient id="linear-gradient" x1="11.48" x2="119.8" y1="107.83" y2="-8.75" gradientTransform="translate(-11.03 14.64) rotate(-11.4)" gradientUnits="userSpaceOnUse"><stop offset="0" stop-color="#0032c3"/><stop offset=".42" stop-color="#0077ba"/><stop offset=".81" stop-color="#00b1b2"/><stop offset="1" stop-color="#00c8af"/></linearGradient><linearGradient id="linear-gradient-2" x1="-12.72" x2="90.24" y1="120.48" y2="18.59" gradientTransform="matrix(.62094 -.80709 .81128 .61773 -20.892 73.546)" xlink:href="#linear-gradient"/><linearGradient id="linear-gradient-3" x1="27.25" x2="118.94" y1="-6.51" y2="94.21" gradientUnits="userSpaceOnUse"><stop offset="0" stop-color="#b1b7c2"/><stop offset="1" stop-color="#fff"/></linearGradient><linearGradient id="linear-gradient-4" x1="39.05" x2="130.74" y1="-17.25" y2="83.47" xlink:href="#linear-gradient-3"/><linearGradient id="linear-gradient-5" x1="35.31" x2="127" y1="-13.85" y2="86.87" xlink:href="#linear-gradient-3"/><linearGradient id="linear-gradient-6" x1="20.79" x2="112.48" y1="-.63" y2="100.09" xlink:href="#linear-gradient-3"/><linearGradient id="linear-gradient-7" x1="20.03" x2="111.72" y1=".06" y2="100.78" xlink:href="#linear-gradient-3"/><linearGradient id="linear-gradient-8" x1="31.83" x2="123.52" y1="-10.68" y2="90.04" xlink:href="#linear-gradient-3"/><linearGradient id="linear-gradient-9" x1="28.09" x2="119.78" y1="-7.28" y2="93.44" xlink:href="#linear-gradient-3"/><linearGradient id="linear-gradient-10" x1="13.57" x2="105.26" y1="5.95" y2="106.66" xlink:href="#linear-gradient-3"/><linearGradient id="linear-gradient-11" x1="10.87" x2="102.56" y1="8.41" y2="109.12" xlink:href="#linear-gradient-3"/><linearGradient id="linear-gradient-12" x1="7.12" x2="98.81" y1="11.81" y2="112.53" gradientTransform="matrix(1 0 0 .914 0 5.8047)" xlink:href="#linear-gradient-3"/><linearGradient id="linear-gradient-13" x1="14.81" x2="106.51" y1="4.81" y2="105.53" xlink:href="#linear-gradient-3"/><linearGradient id="linear-gradient-14" x1="20.43" x2="112.12" y1="-.3" y2="100.41" gradientTransform="matrix(.91386 0 0 .961 5.8948 2.4494)" xlink:href="#linear-gradient-3"/><linearGradient id="linear-gradient-15" x1="-1.28" x2="90.41" y1="19.46" y2="120.18" gradientTransform="matrix(.91271 0 0 .94767 4.6229 3.2866)" xlink:href="#linear-gradient-3"/><linearGradient id="linear-gradient-16" x1="11.15" x2="102.84" y1="8.15" y2="108.87" xlink:href="#linear-gradient-3"/><linearGradient id="linear-gradient-17" x1="18.31" x2="110" y1="1.63" y2="102.35" gradientTransform="translate(-2)" xlink:href="#linear-gradient-3"/><linearGradient id="linear-gradient-18" x1="13.11" x2="104.8" y1="6.36" y2="107.08" gradientTransform="translate(-2)" xlink:href="#linear-gradient-3"/><linearGradient id="linear-gradient-19" x1="1.74" x2="93.43" y1="16.71" y2="117.43" xlink:href="#linear-gradient-3"/><linearGradient id="linear-gradient-20" x1="-3.46" x2="88.24" y1="21.44" y2="122.16" xlink:href="#linear-gradient-3"/><linearGradient id="linear-gradient-21" x1="-14.83" x2="76.86" y1="31.8" y2="132.51" gradientTransform="translate(2)" xlink:href="#linear-gradient-3"/><linearGradient id="linear-gradient-22" x1="-20.02" x2="71.67" y1="36.53" y2="137.24" gradientTransform="translate(2)" xlink:href="#linear-gradient-3"/><linearGradient id="linearGradient958" x1="11.48" x2="119.8" y1="107.83" y2="-8.75" gradientTransform="matrix(1.0049 -.20005 .20263 .99215 -13.358 15.112)" gradientUnits="userSpaceOnUse" xlink:href="#linear-gradient"/></defs><path fill="url(#linearGradient958)" stroke-width="1.019" d="m24.112 9.8796c9.1138-14.979 84.7 12.226 93.465 39.28 8.7652 27.054-52.489 84.866-76.437 70.201-20.79-12.712-41.786-68.773-17.028-109.48z" class="cls-1"/><path fill="url(#linear-gradient-2)" stroke-width="1.019" d="m106.84 92.989c-8.0505 15.347-83.161 17.756-97.413-2.8763-14.252-20.632 10.482-69.346 47.394-83.789 39.599-15.571 63.658 60.656 50.019 86.665z" class="cls-2"/><path d="M85.74,38.14H36a3.75,3.75,0,0,1-3.75-3.75v-8A3.75,3.75,0,0,1,36,22.64H85.74a3.75,3.75,0,0,1,3.75,3.75v8A3.75,3.75,0,0,1,85.74,38.14ZM36,23.64a2.75,2.75,0,0,0-2.75,2.75v8A2.75,2.75,0,0,0,36,37.14H85.74a2.75,2.75,0,0,0,2.75-2.75v-8a2.75,2.75,0,0,0-2.75-2.75Z" class="cls-3"/><path d="m82.42 32.49a2.1 2.1 0 1 1 2.11-2.1 2.1 2.1 0 0 1-2.11 2.1zm0-3.2a1.1 1.1 0 1 0 1.11 1.1 1.1 1.1 0 0 0-1.11-1.1z" class="cls-4"/><path d="m75.59 32.49a2.1 2.1 0 1 1 2.1-2.1 2.1 2.1 0 0 1-2.1 2.1zm0-3.2a1.1 1.1 0 1 0 1.1 1.1 1.1 1.1 0 0 0-1.1-1.1z" class="cls-5"/><path d="M60.38,30.89H37.67a.5.5,0,0,1-.5-.5.51.51,0,0,1,.5-.5H60.38a.51.51,0,0,1,.5.5A.5.5,0,0,1,60.38,30.89Z" class="cls-6"/><path d="M85.74,52.65H36a3.75,3.75,0,0,1-3.75-3.75v-8A3.76,3.76,0,0,1,36,37.14H85.74a3.76,3.76,0,0,1,3.75,3.76v8A3.75,3.75,0,0,1,85.74,52.65ZM36,38.14a2.76,2.76,0,0,0-2.75,2.76v8A2.75,2.75,0,0,0,36,51.65H85.74a2.75,2.75,0,0,0,2.75-2.75v-8a2.76,2.76,0,0,0-2.75-2.76Z" class="cls-7"/><path d="m82.42 47a2.11 2.11 0 1 1 2.11-2.1 2.1 2.1 0 0 1-2.11 2.1zm0-3.21a1.11 1.11 0 1 0 1.11 1.11 1.11 1.11 0 0 0-1.11-1.11z" class="cls-8"/><path d="m75.59 47a2.11 2.11 0 1 1 2.1-2.1 2.1 2.1 0 0 1-2.1 2.1zm0-3.21a1.11 1.11 0 1 0 1.1 1.11 1.11 1.11 0 0 0-1.1-1.11z" class="cls-9"/><path d="M60.38,45.4H37.67a.51.51,0,0,1-.5-.5.5.5,0,0,1,.5-.5H60.38a.5.5,0,0,1,.5.5A.51.51,0,0,1,60.38,45.4Z" class="cls-10"/><path d="m60.85 68.5a5.19 5.19 0 1 1 5.15-5.19 5.2 5.2 0 0 1-5.15 5.19zm0-9.38a4.19 4.19 0 1 0 4.15 4.19 4.2 4.2 0 0 0-4.15-4.19z" class="cls-11"/><path fill="url(#linear-gradient-12)" stroke-width=".956" d="m60.85 73.596a0.5 0.457 0 0 1-0.5-0.457v-5.1824a0.51 0.46614 0 0 1 0.5-0.457 0.5 0.457 0 0 1 0.5 0.457v5.1824a0.5 0.457 0 0 1-0.5 0.457z" class="cls-12"/><path d="M60.85,59.12a.51.51,0,0,1-.5-.5V52.15a.5.5,0,0,1,.5-.5.5.5,0,0,1,.5.5v6.47A.5.5,0,0,1,60.85,59.12Z" class="cls-13"/><path fill="url(#linear-gradient-14)" stroke-width=".937" d="m89.193 73.727a0.45693 0.4805 0 0 1-0.45693-0.4805v-9.4755h-22.947a0.45693 0.4805 0 0 1 0-0.961h23.404a0.45693 0.4805 0 0 1 0.45693 0.4805v9.956a0.45693 0.4805 0 0 1-0.45693 0.4805z" class="cls-14"/><path fill="url(#linear-gradient-15)" stroke-width=".93" d="m32.506 73.576a0.45636 0.47384 0 0 1-0.45636-0.47384v-9.8179a0.45636 0.47384 0 0 1 0.45636-0.47384h23.375a0.45636 0.47384 0 0 1 0 0.94768h-22.918v9.3441a0.45636 0.47384 0 0 1-0.45636 0.47384z" class="cls-15"/><path d="M60,65.21a.5.5,0,0,1-.35-.14l-1.13-1.13a.5.5,0,0,1,0-.71.5.5,0,0,1,.7,0L60,64l2.46-2.46a.5.5,0,0,1,.7,0,.5.5,0,0,1,0,.71l-2.81,2.81A.52.52,0,0,1,60,65.21Z" class="cls-16"/><path fill="url(#linear-gradient-17)" d="m97.48 90.12h-16.66a3.35 3.35 0 0 1-3.35-3.34v-10.27a3.35 3.35 0 0 1 3.35-3.34h16.66a3.35 3.35 0 0 1 3.35 3.34v10.27a3.35 3.35 0 0 1-3.35 3.34zm-16.66-16a2.35 2.35 0 0 0-2.35 2.34v10.32a2.35 2.35 0 0 0 2.35 2.34h16.66a2.35 2.35 0 0 0 2.35-2.34v-10.27a2.35 2.35 0 0 0-2.35-2.34z" class="cls-17"/><path fill="url(#linear-gradient-18)" d="m95.22 92.58h-12.14a0.5 0.5 0 0 1-0.5-0.5 0.5 0.5 0 0 1 0.5-0.5h12.14a0.5 0.5 0 0 1 0.5 0.5 0.5 0.5 0 0 1-0.5 0.5z" class="cls-18"/><path d="M69.19,90.12H52.52a3.35,3.35,0,0,1-3.35-3.34V76.51a3.35,3.35,0,0,1,3.35-3.34H69.19a3.35,3.35,0,0,1,3.34,3.34V86.78A3.35,3.35,0,0,1,69.19,90.12Zm-16.67-16a2.35,2.35,0,0,0-2.35,2.34V86.78a2.35,2.35,0,0,0,2.35,2.34H69.19a2.34,2.34,0,0,0,2.34-2.34V76.51a2.34,2.34,0,0,0-2.34-2.34Z" class="cls-19"/><path d="M66.93,92.58H54.78a.5.5,0,0,1-.5-.5.5.5,0,0,1,.5-.5H66.93a.51.51,0,0,1,.5.5A.5.5,0,0,1,66.93,92.58Z" class="cls-20"/><path fill="url(#linear-gradient-21)" d="m40.89 90.12h-16.67a3.35 3.35 0 0 1-3.34-3.34v-10.27a3.35 3.35 0 0 1 3.34-3.34h16.67a3.35 3.35 0 0 1 3.34 3.34v10.27a3.35 3.35 0 0 1-3.34 3.34zm-16.67-16a2.34 2.34 0 0 0-2.34 2.34v10.32a2.34 2.34 0 0 0 2.34 2.34h16.67a2.34 2.34 0 0 0 2.34-2.34v-10.27a2.34 2.34 0 0 0-2.34-2.34z" class="cls-21"/><path fill="url(#linear-gradient-22)" d="m38.63 92.58h-12.15a0.5 0.5 0 0 1-0.5-0.5 0.51 0.51 0 0 1 0.5-0.5h12.15a0.5 0.5 0 0 1 0.5 0.5 0.5 0.5 0 0 1-0.5 0.5z" class="cls-22"/></svg>