<?xml version="1.0" encoding="UTF-8" standalone="no"?>
<svg
   data-name="Layer 1"
   version="1.1"
   viewBox="0 0 128 128"
   id="svg85"
   sodipodi:docname="NETworkManager.svg"
   inkscape:version="1.1.1 (3bf5ae0d25, 2021-09-20)"
   width="128"
   height="128"
   xmlns:inkscape="http://www.inkscape.org/namespaces/inkscape"
   xmlns:sodipodi="http://sodipodi.sourceforge.net/DTD/sodipodi-0.dtd"
   xmlns:xlink="http://www.w3.org/1999/xlink"
   xmlns="http://www.w3.org/2000/svg"
   xmlns:svg="http://www.w3.org/2000/svg">
  <sodipodi:namedview
     id="namedview87"
     pagecolor="#ffffff"
     bordercolor="#666666"
     borderopacity="1.0"
     inkscape:pageshadow="2"
     inkscape:pageopacity="0.0"
     inkscape:pagecheckerboard="0"
     showgrid="false"
     inkscape:zoom="5.6568543"
     inkscape:cx="56.480154"
     inkscape:cy="75.92559"
     inkscape:window-width="2560"
     inkscape:window-height="1369"
     inkscape:window-x="1432"
     inkscape:window-y="786"
     inkscape:window-maximized="1"
     inkscape:current-layer="svg85"
     width="128px" />
  <defs
     id="defs39">
    <style
       id="style2">.cls-1{fill:url(#linear-gradient)}.cls-2{opacity:.5;fill:url(#linear-gradient-2)}.cls-3{fill:url(#linear-gradient-3)}.cls-4{fill:url(#linear-gradient-4)}.cls-5{fill:url(#linear-gradient-5)}.cls-6{fill:url(#linear-gradient-6)}.cls-7{fill:url(#linear-gradient-7)}.cls-8{fill:url(#linear-gradient-8)}.cls-9{fill:url(#linear-gradient-9)}.cls-10{fill:url(#linear-gradient-10)}.cls-11{fill:url(#linear-gradient-11)}.cls-12{fill:url(#linear-gradient-12)}.cls-13{fill:url(#linear-gradient-13)}.cls-14{fill:url(#linear-gradient-14)}.cls-15{fill:url(#linear-gradient-15)}.cls-16{fill:url(#linear-gradient-16)}.cls-17{fill:url(#linear-gradient-17)}.cls-18{fill:url(#linear-gradient-18)}.cls-19{fill:url(#linear-gradient-19)}.cls-20{fill:url(#linear-gradient-20)}.cls-21{fill:url(#linear-gradient-21)}.cls-22{fill:url(#linear-gradient-22)}</style>
    <linearGradient
       id="linear-gradient"
       x1="11.48"
       x2="119.8"
       y1="107.83"
       y2="-8.75"
       gradientTransform="rotate(-11.4,67.821942,62.573175)"
       gradientUnits="userSpaceOnUse">
      <stop
         offset="0"
         stop-color="#0032c3"
         id="stop4" />
      <stop
         offset=".42"
         stop-color="#0077ba"
         id="stop6" />
      <stop
         offset=".81"
         stop-color="#00b1b2"
         id="stop8" />
      <stop
         offset="1"
         stop-color="#00c8af"
         id="stop10" />
    </linearGradient>
    <linearGradient
       id="linear-gradient-2"
       x1="-12.72"
       x2="90.239998"
       y1="120.48"
       y2="18.59"
       gradientTransform="matrix(0.65420872,-0.8324581,0.85474676,0.63714622,-22.578368,76.531642)"
       xlink:href="#linear-gradient" />
    <linearGradient
       id="linear-gradient-3"
       x1="27.25"
       x2="118.94"
       y1="-6.5100002"
       y2="94.209999"
       gradientUnits="userSpaceOnUse">
      <stop
         offset="0"
         stop-color="#b1b7c2"
         id="stop14" />
      <stop
         offset="1"
         stop-color="#fff"
         id="stop16" />
    </linearGradient>
    <linearGradient
       id="linear-gradient-4"
       x1="39.049999"
       x2="130.74001"
       y1="-17.25"
       y2="83.470001"
       xlink:href="#linear-gradient-3"
       gradientTransform="translate(3.1132016,0.72565775)" />
    <linearGradient
       id="linear-gradient-5"
       x1="35.310001"
       x2="127"
       y1="-13.85"
       y2="86.870003"
       xlink:href="#linear-gradient-3"
       gradientTransform="translate(3.1132016,0.72565775)" />
    <linearGradient
       id="linear-gradient-6"
       x1="20.790001"
       x2="112.48"
       y1="-0.63"
       y2="100.09"
       xlink:href="#linear-gradient-3"
       gradientTransform="translate(3.1132016,0.72565775)" />
    <linearGradient
       id="linear-gradient-7"
       x1="20.030001"
       x2="111.72"
       y1="0.059999999"
       y2="100.78"
       xlink:href="#linear-gradient-3"
       gradientTransform="translate(3.1132016,0.72565775)" />
    <linearGradient
       id="linear-gradient-8"
       x1="31.83"
       x2="123.52"
       y1="-10.68"
       y2="90.040001"
       xlink:href="#linear-gradient-3"
       gradientTransform="translate(3.1132016,0.72565775)" />
    <linearGradient
       id="linear-gradient-9"
       x1="28.09"
       x2="119.78"
       y1="-7.2800002"
       y2="93.440002"
       xlink:href="#linear-gradient-3"
       gradientTransform="translate(3.1132016,0.72565775)" />
    <linearGradient
       id="linear-gradient-10"
       x1="13.57"
       x2="105.26"
       y1="5.9499998"
       y2="106.66"
       xlink:href="#linear-gradient-3"
       gradientTransform="translate(3.1132016,0.72565775)" />
    <linearGradient
       id="linear-gradient-11"
       x1="10.87"
       x2="102.56"
       y1="8.4099998"
       y2="109.12"
       xlink:href="#linear-gradient-3"
       gradientTransform="translate(3.1132016,0.72565775)" />
    <linearGradient
       id="linear-gradient-12"
       x1="7.1199999"
       x2="98.809998"
       y1="11.81"
       y2="112.53"
       gradientTransform="matrix(1,0,0,0.914,3.1132016,6.5303577)"
       xlink:href="#linear-gradient-3" />
    <linearGradient
       id="linear-gradient-13"
       x1="14.81"
       x2="106.51"
       y1="4.8099999"
       y2="105.53"
       xlink:href="#linear-gradient-3"
       gradientTransform="translate(3.1131982,0.72565775)" />
    <linearGradient
       id="linear-gradient-14"
       x1="20.43"
       x2="112.12"
       y1="-0.30000001"
       y2="100.41"
       gradientTransform="matrix(0.91386,0,0,0.961,9.0080016,3.1750578)"
       xlink:href="#linear-gradient-3" />
    <linearGradient
       id="linear-gradient-15"
       x1="-1.28"
       x2="90.410004"
       y1="19.459999"
       y2="120.18"
       gradientTransform="matrix(0.91271,0,0,0.94767,7.7361016,4.0122577)"
       xlink:href="#linear-gradient-3" />
    <linearGradient
       id="linear-gradient-16"
       x1="11.15"
       x2="102.84"
       y1="8.1499996"
       y2="108.87"
       xlink:href="#linear-gradient-3"
       gradientTransform="translate(3.1132016,0.72565775)" />
    <linearGradient
       id="linear-gradient-17"
       x1="18.309999"
       x2="110"
       y1="1.63"
       y2="102.35"
       xlink:href="#linear-gradient-3"
       gradientTransform="translate(1.1132016,0.72565775)" />
    <linearGradient
       id="linear-gradient-18"
       x1="13.11"
       x2="104.8"
       y1="6.3600001"
       y2="107.08"
       xlink:href="#linear-gradient-3"
       gradientTransform="translate(1.1132016,0.72565775)" />
    <linearGradient
       id="linear-gradient-19"
       x1="1.74"
       x2="93.43"
       y1="16.709999"
       y2="117.43"
       xlink:href="#linear-gradient-3"
       gradientTransform="translate(3.1132016,0.72565775)" />
    <linearGradient
       id="linear-gradient-20"
       x1="-3.46"
       x2="88.239998"
       y1="21.440001"
       y2="122.16"
       xlink:href="#linear-gradient-3"
       gradientTransform="translate(3.1132016,0.72565775)" />
    <linearGradient
       id="linear-gradient-21"
       x1="-14.83"
       x2="76.860001"
       y1="31.799999"
       y2="132.50999"
       gradientTransform="translate(5.1132016,0.72565775)"
       xlink:href="#linear-gradient-3" />
    <linearGradient
       id="linear-gradient-22"
       x1="-20.02"
       x2="71.669998"
       y1="36.529999"
       y2="137.24001"
       gradientTransform="translate(5.1132016,0.72565775)"
       xlink:href="#linear-gradient-3" />
    <linearGradient
       id="linearGradient958"
       x1="11.48"
       x2="119.8"
       y1="107.83"
       y2="-8.75"
       gradientTransform="matrix(1.0049,-0.20005,0.20263,0.99215,-13.358,15.112)"
       gradientUnits="userSpaceOnUse"
       xlink:href="#linear-gradient" />
    <linearGradient
       inkscape:collect="always"
       xlink:href="#linear-gradient"
       id="linearGradient904"
       gradientUnits="userSpaceOnUse"
       gradientTransform="matrix(0.99986811,-0.19859043,0.20160878,0.98489877,-9.0200541,15.533264)"
       x1="11.48"
       y1="107.83"
       x2="119.8"
       y2="-8.75" />
    <linearGradient
       inkscape:collect="always"
       xlink:href="#linear-gradient-3"
       id="linearGradient906"
       gradientUnits="userSpaceOnUse"
       x1="27.25"
       y1="-6.5100002"
       x2="118.94"
       y2="94.209999"
       gradientTransform="translate(3.1132016,0.72565775)" />
  </defs>
  <path
     fill="url(#linearGradient958)"
     stroke-width="1.03156"
     d="M 26.824482,10.750392 C 36.12048,-4.2993206 113.21775,23.034107 122.15797,50.215822 131.09839,77.397537 68.619648,135.48246 44.192895,120.74823 22.987275,107.97621 1.571536,51.650563 26.824482,10.751397 Z"
     class="cls-1"
     id="path41"
     style="fill:url(#linearGradient904)" />
  <path
     fill="url(#linear-gradient-2)"
     stroke-width="1.06226"
     d="M 111.99725,96.585762 C 103.51543,112.41514 24.380659,114.89986 9.365065,93.619055 -5.6505295,72.33856 20.408669,22.093404 59.29834,7.1964383 101.01898,-8.8639821 126.36701,69.75895 111.99725,96.585452 Z"
     class="cls-2"
     id="path43"
     style="fill:url(#linear-gradient-2)" />
  <path
     d="m 88.853202,38.865658 h -49.74 a 3.75,3.75 0 0 1 -3.75,-3.75 v -8 a 3.75,3.75 0 0 1 3.75,-3.75 h 49.74 a 3.75,3.75 0 0 1 3.75,3.75 v 8 a 3.75,3.75 0 0 1 -3.75,3.75 z m -49.74,-14.5 a 2.75,2.75 0 0 0 -2.75,2.75 v 8 a 2.75,2.75 0 0 0 2.75,2.75 h 49.74 a 2.75,2.75 0 0 0 2.75,-2.75 v -8 a 2.75,2.75 0 0 0 -2.75,-2.75 z"
     class="cls-3"
     id="path45"
     style="fill:url(#linearGradient906)" />
  <path
     d="m 85.533202,33.215658 a 2.1,2.1 0 1 1 2.11,-2.1 2.1,2.1 0 0 1 -2.11,2.1 z m 0,-3.2 a 1.1,1.1 0 1 0 1.11,1.1 1.1,1.1 0 0 0 -1.11,-1.1 z"
     class="cls-4"
     id="path47"
     style="fill:url(#linear-gradient-4)" />
  <path
     d="m 78.703202,33.215658 a 2.1,2.1 0 1 1 2.1,-2.1 2.1,2.1 0 0 1 -2.1,2.1 z m 0,-3.2 a 1.1,1.1 0 1 0 1.1,1.1 1.1,1.1 0 0 0 -1.1,-1.1 z"
     class="cls-5"
     id="path49"
     style="fill:url(#linear-gradient-5)" />
  <path
     d="m 63.493202,31.615658 h -22.71 a 0.5,0.5 0 0 1 -0.5,-0.5 0.51,0.51 0 0 1 0.5,-0.5 h 22.71 a 0.51,0.51 0 0 1 0.5,0.5 0.5,0.5 0 0 1 -0.5,0.5 z"
     class="cls-6"
     id="path51"
     style="fill:url(#linear-gradient-6)" />
  <path
     d="m 88.853202,53.375658 h -49.74 a 3.75,3.75 0 0 1 -3.75,-3.75 v -8 a 3.76,3.76 0 0 1 3.75,-3.76 h 49.74 a 3.76,3.76 0 0 1 3.75,3.76 v 8 a 3.75,3.75 0 0 1 -3.75,3.75 z m -49.74,-14.51 a 2.76,2.76 0 0 0 -2.75,2.76 v 8 a 2.75,2.75 0 0 0 2.75,2.75 h 49.74 a 2.75,2.75 0 0 0 2.75,-2.75 v -8 a 2.76,2.76 0 0 0 -2.75,-2.76 z"
     class="cls-7"
     id="path53"
     style="fill:url(#linear-gradient-7)" />
  <path
     d="m 85.533202,47.725658 a 2.11,2.11 0 1 1 2.11,-2.1 2.1,2.1 0 0 1 -2.11,2.1 z m 0,-3.21 a 1.11,1.11 0 1 0 1.11,1.11 1.11,1.11 0 0 0 -1.11,-1.11 z"
     class="cls-8"
     id="path55"
     style="fill:url(#linear-gradient-8)" />
  <path
     d="m 78.703202,47.725658 a 2.11,2.11 0 1 1 2.1,-2.1 2.1,2.1 0 0 1 -2.1,2.1 z m 0,-3.21 a 1.11,1.11 0 1 0 1.1,1.11 1.11,1.11 0 0 0 -1.1,-1.11 z"
     class="cls-9"
     id="path57"
     style="fill:url(#linear-gradient-9)" />
  <path
     d="m 63.493202,46.125658 h -22.71 a 0.51,0.51 0 0 1 -0.5,-0.5 0.5,0.5 0 0 1 0.5,-0.5 h 22.71 a 0.5,0.5 0 0 1 0.5,0.5 0.51,0.51 0 0 1 -0.5,0.5 z"
     class="cls-10"
     id="path59"
     style="fill:url(#linear-gradient-10)" />
  <path
     d="m 63.963202,69.225658 a 5.19,5.19 0 1 1 5.15,-5.19 5.2,5.2 0 0 1 -5.15,5.19 z m 0,-9.38 a 4.19,4.19 0 1 0 4.15,4.19 4.2,4.2 0 0 0 -4.15,-4.19 z"
     class="cls-11"
     id="path61"
     style="fill:url(#linear-gradient-11);stroke-width:1" />
  <path
     fill="url(#linear-gradient-12)"
     stroke-width="0.956"
     d="m 63.963202,74.321658 a 0.5,0.457 0 0 1 -0.5,-0.457 v -5.1824 a 0.51,0.46614 0 0 1 0.5,-0.457 0.5,0.457 0 0 1 0.5,0.457 v 5.1824 a 0.5,0.457 0 0 1 -0.5,0.457 z"
     class="cls-12"
     id="path63"
     style="fill:url(#linear-gradient-12)" />
  <path
     d="m 63.963202,59.845658 a 0.51,0.51 0 0 1 -0.5,-0.5 v -6.47 a 0.5,0.5 0 0 1 0.5,-0.5 0.5,0.5 0 0 1 0.5,0.5 v 6.47 a 0.5,0.5 0 0 1 -0.5,0.5 z"
     class="cls-13"
     id="path65"
     style="fill:url(#linear-gradient-13);stroke-width:1" />
  <path
     fill="url(#linear-gradient-14)"
     stroke-width="0.937"
     d="m 92.306202,74.452658 a 0.45693,0.4805 0 0 1 -0.45693,-0.4805 v -9.4755 h -22.947 a 0.45693,0.4805 0 0 1 0,-0.961 h 23.404 a 0.45693,0.4805 0 0 1 0.45693,0.4805 v 9.956 a 0.45693,0.4805 0 0 1 -0.45693,0.4805 z"
     class="cls-14"
     id="path67"
     style="fill:url(#linear-gradient-14)" />
  <path
     fill="url(#linear-gradient-15)"
     stroke-width="0.93"
     d="m 35.619202,74.301658 a 0.45636,0.47384 0 0 1 -0.45636,-0.47384 v -9.8179 a 0.45636,0.47384 0 0 1 0.45636,-0.47384 h 23.375 a 0.45636,0.47384 0 0 1 0,0.94768 h -22.918 v 9.3441 a 0.45636,0.47384 0 0 1 -0.45636,0.47384 z"
     class="cls-15"
     id="path69"
     style="fill:url(#linear-gradient-15)" />
  <path
     d="m 63.113202,65.935658 a 0.5,0.5 0 0 1 -0.35,-0.14 l -1.13,-1.13 a 0.5,0.5 0 0 1 0,-0.71 0.5,0.5 0 0 1 0.7,0 l 0.78,0.77 2.46,-2.46 a 0.5,0.5 0 0 1 0.7,0 0.5,0.5 0 0 1 0,0.71 l -2.81,2.81 a 0.52,0.52 0 0 1 -0.35,0.15 z"
     class="cls-16"
     id="path71"
     style="fill:url(#linear-gradient-16)" />
  <path
     fill="url(#linear-gradient-17)"
     d="M 100.59319,90.845658 H 83.933202 a 3.35,3.35 0 0 1 -3.35,-3.34 v -10.27 a 3.35,3.35 0 0 1 3.35,-3.34 h 16.659988 a 3.35,3.35 0 0 1 3.35,3.34 v 10.27 a 3.35,3.35 0 0 1 -3.35,3.34 z m -16.659988,-16 a 2.35,2.35 0 0 0 -2.35,2.34 v 10.32 a 2.35,2.35 0 0 0 2.35,2.34 h 16.659988 a 2.35,2.35 0 0 0 2.35,-2.34 v -10.27 a 2.35,2.35 0 0 0 -2.35,-2.34 z"
     class="cls-17"
     id="path73"
     style="fill:url(#linear-gradient-17)" />
  <path
     fill="url(#linear-gradient-18)"
     d="m 98.333202,93.305658 h -12.14 a 0.5,0.5 0 0 1 -0.5,-0.5 0.5,0.5 0 0 1 0.5,-0.5 h 12.14 a 0.5,0.5 0 0 1 0.5,0.5 0.5,0.5 0 0 1 -0.5,0.5 z"
     class="cls-18"
     id="path75"
     style="fill:url(#linear-gradient-18)" />
  <path
     d="m 72.303202,90.845658 h -16.67 a 3.35,3.35 0 0 1 -3.35,-3.34 v -10.27 a 3.35,3.35 0 0 1 3.35,-3.34 h 16.67 a 3.35,3.35 0 0 1 3.34,3.34 v 10.27 a 3.35,3.35 0 0 1 -3.34,3.34 z m -16.67,-16 a 2.35,2.35 0 0 0 -2.35,2.34 v 10.32 a 2.35,2.35 0 0 0 2.35,2.34 h 16.67 a 2.34,2.34 0 0 0 2.34,-2.34 v -10.27 a 2.34,2.34 0 0 0 -2.34,-2.34 z"
     class="cls-19"
     id="path77"
     style="fill:url(#linear-gradient-19)" />
  <path
     d="m 70.043202,93.305658 h -12.15 a 0.5,0.5 0 0 1 -0.5,-0.5 0.5,0.5 0 0 1 0.5,-0.5 h 12.15 a 0.51,0.51 0 0 1 0.5,0.5 0.5,0.5 0 0 1 -0.5,0.5 z"
     class="cls-20"
     id="path79"
     style="fill:url(#linear-gradient-20)" />
  <path
     fill="url(#linear-gradient-21)"
     d="m 44.003202,90.845658 h -16.67 a 3.35,3.35 0 0 1 -3.34,-3.34 v -10.27 a 3.35,3.35 0 0 1 3.34,-3.34 h 16.67 a 3.35,3.35 0 0 1 3.34,3.34 v 10.27 a 3.35,3.35 0 0 1 -3.34,3.34 z m -16.67,-16 a 2.34,2.34 0 0 0 -2.34,2.34 v 10.32 a 2.34,2.34 0 0 0 2.34,2.34 h 16.67 a 2.34,2.34 0 0 0 2.34,-2.34 v -10.27 a 2.34,2.34 0 0 0 -2.34,-2.34 z"
     class="cls-21"
     id="path81"
     style="fill:url(#linear-gradient-21)" />
  <path
     fill="url(#linear-gradient-22)"
     d="m 41.743202,93.305658 h -12.15 a 0.5,0.5 0 0 1 -0.5,-0.5 0.51,0.51 0 0 1 0.5,-0.5 h 12.15 a 0.5,0.5 0 0 1 0.5,0.5 0.5,0.5 0 0 1 -0.5,0.5 z"
     class="cls-22"
     id="path83"
     style="fill:url(#linear-gradient-22)" />
</svg>
