<?xml version="1.0" encoding="UTF-8" standalone="no"?>
<!-- Generator: Adobe Illustrator 25.4.1, SVG Export Plug-In . SVG Version: 6.00 Build 0)  -->

<svg
   version="1.1"
   id="Layer_1"
   x="0px"
   y="0px"
   viewBox="0 0 500 500"
   style="enable-background:new 0 0 500 500;"
   xml:space="preserve"
   sodipodi:docname="NETworkManager.svg"
   inkscape:version="1.1.1 (3bf5ae0d25, 2021-09-20)"
   xmlns:inkscape="http://www.inkscape.org/namespaces/inkscape"
   xmlns:sodipodi="http://sodipodi.sourceforge.net/DTD/sodipodi-0.dtd"
   xmlns="http://www.w3.org/2000/svg"
   xmlns:svg="http://www.w3.org/2000/svg"><defs
   id="defs19" /><sodipodi:namedview
   id="namedview17"
   pagecolor="#ffffff"
   bordercolor="#666666"
   borderopacity="1.0"
   inkscape:pageshadow="2"
   inkscape:pageopacity="0.0"
   inkscape:pagecheckerboard="0"
   showgrid="false"
   inkscape:zoom="13.968"
   inkscape:cx="268.07703"
   inkscape:cy="338.73855"
   inkscape:window-width="2560"
   inkscape:window-height="1369"
   inkscape:window-x="1432"
   inkscape:window-y="786"
   inkscape:window-maximized="1"
   inkscape:current-layer="g14" />
<style
   type="text/css"
   id="style2">
	.st0{fill:#39B54A;}
	.st1{fill:#1C75BC;}
	.st2{fill-rule:evenodd;clip-rule:evenodd;fill:#1C75BC;}
	.st3{fill-rule:evenodd;clip-rule:evenodd;fill:#39B54A;}
	.st4{fill:#FFFFFF;}
</style>

<g
   inkscape:groupmode="layer"
   id="layer1"
   inkscape:label="Layer 1"><rect
     style="fill:#00d4aa;stroke-width:1.01258"
     id="rect3264"
     width="417.52576"
     height="61.855671"
     x="40.664375"
     y="219.07216"
     ry="2.5773301" /><rect
     style="fill:#ffcc00"
     id="rect3746"
     width="424.39862"
     height="74.455902"
     x="34.937"
     y="47.546391"
     ry="2.5773301" /><rect
     style="fill:#b380ff;stroke-width:1.04573"
     id="rect4018"
     width="417.52576"
     height="66.437553"
     x="38.373425"
     y="379.71591"
     ry="2.7179108" /></g><g
   inkscape:groupmode="layer"
   id="layer2"
   inkscape:label="Layer 2"
   style="display:inline"><g
     id="g14"
     transform="matrix(1.3876941,0,0,1.3876941,-92.482904,-57.45223)">
	<path
   class="st0"
   d="M 397.58218,54.860647 H 96.01783 c -7.875842,0 -14.267819,6.39198 -14.267819,14.267808 v 68.028895 c 0,7.87582 6.391977,14.26779 14.267819,14.26779 h 301.56435 c 7.87584,0 14.26781,-6.39197 14.26781,-14.26779 V 69.128455 C 411.73586,61.252627 405.45802,54.860647 397.58218,54.860647 Z M 206.27944,109.8773 c 0,3.42427 -2.73943,6.16369 -6.16369,6.16369 h -87.66141 c -3.42427,0 -6.16369,-2.73942 -6.16369,-6.16369 V 96.408496 c 0,-3.42428 2.73942,-6.16368 6.16369,-6.16368 h 87.66141 c 3.42426,0 6.16369,2.7394 6.16369,6.16368 z m 112.08789,9.7021 c -9.13141,0 -16.43652,-7.41926 -16.43652,-16.43651 0,-9.131384 7.41926,-16.436504 16.43652,-16.436504 9.13139,0 16.4365,7.30512 16.4365,16.436504 0.11414,9.13141 -7.30511,16.43651 -16.4365,16.43651 z m 52.39138,0 c -9.1314,0 -16.43652,-7.41926 -16.43652,-16.43651 0,-9.131384 7.41927,-16.436504 16.43652,-16.436504 9.1314,0 16.43651,7.30512 16.43651,16.436504 0,9.13141 -7.30511,16.43651 -16.43651,16.43651 z"
   id="path4"
   style="fill:#ff6600;stroke-width:1.14143" /><path
   class="st0"
   d="M 397.58218,291.64573 H 96.01783 c -7.875842,0 -14.267819,6.39197 -14.267819,14.26781 v 68.02889 c 0,7.87584 6.391977,14.26781 14.267819,14.26781 h 301.56435 c 7.87584,0 14.26781,-6.39197 14.26781,-14.26781 v -68.02889 c -0.11413,-7.87584 -6.39197,-14.26781 -14.26781,-14.26781 z M 206.27944,346.6624 c 0,3.42426 -2.73943,6.16368 -6.16369,6.16368 h -87.66141 c -3.42427,0 -6.16369,-2.73942 -6.16369,-6.16368 v -13.46881 c 0,-3.42427 2.73942,-6.16371 6.16369,-6.16371 h 87.66141 c 3.42426,0 6.16369,2.73944 6.16369,6.16371 z m 112.08789,9.7021 c -9.13141,0 -16.43652,-7.41927 -16.43652,-16.43652 0,-9.13137 7.41926,-16.43651 16.43652,-16.43651 9.13139,0 16.4365,7.30514 16.4365,16.43651 0.11414,9.13141 -7.30511,16.43652 -16.4365,16.43652 z m 52.39138,0 c -9.1314,0 -16.43652,-7.41927 -16.43652,-16.43652 0,-9.13137 7.41927,-16.43651 16.43652,-16.43651 9.1314,0 16.43651,7.30514 16.43651,16.43651 0,9.13141 -7.30511,16.43652 -16.43651,16.43652 z"
   id="path4-0"
   style="display:inline;fill:#330080;stroke-width:1.14143" />
	<path
   class="st1"
   d="M 397.58218,173.27394 H 96.017832 c -7.875842,0 -14.267819,6.39197 -14.267819,14.2678 v 68.0289 c 0,7.87584 6.391977,14.26781 14.267819,14.26781 H 397.58218 c 7.87584,0 14.26781,-6.39197 14.26781,-14.26781 v -68.0289 c -0.11413,-7.87583 -6.39197,-14.2678 -14.26781,-14.2678 z m -191.30274,55.01665 c 0,3.42428 -2.73943,6.1637 -6.16369,6.1637 h -87.66141 c -3.42427,0 -6.16369,-2.73942 -6.16369,-6.1637 v -13.46881 c 0,-3.42427 2.73942,-6.16368 6.16369,-6.16368 h 87.66141 c 3.42426,0 6.16369,2.73941 6.16369,6.16368 z m 112.08789,9.70211 c -9.13141,0 -16.43652,-7.41925 -16.43652,-16.43652 0,-9.13138 7.41926,-16.4365 16.43652,-16.4365 9.13139,0 16.4365,7.30512 16.4365,16.4365 0.11414,9.01727 -7.30511,16.43652 -16.4365,16.43652 z m 52.39138,0 c -9.1314,0 -16.43652,-7.41925 -16.43652,-16.43652 0,-9.13138 7.41927,-16.4365 16.43652,-16.4365 9.1314,0 16.43651,7.30512 16.43651,16.4365 0,9.01727 -7.30511,16.43652 -16.43651,16.43652 z"
   id="path6"
   style="fill:#0088aa;stroke-width:1.14143" />
	
	
	
</g></g></svg>
