<svg xmlns="http://www.w3.org/2000/svg" xmlns:xlink="http://www.w3.org/1999/xlink" width="888" height="710.807" data-name="Layer 1" viewBox="0 0 888 710.807"><title>server_cluster</title><path fill="#ccc" d="M600.93555,699.40352a260.06372,260.06372,0,1,1,183.89355-76.1709A258.36518,258.36518,0,0,1,600.93555,699.40352Zm0-518.12891c-142.29688,0-258.06446,115.76758-258.06446,258.06494s115.76758,258.064,258.06446,258.064S859,581.63692,859,439.33955,743.23242,181.27461,600.93555,181.27461Z" transform="translate(-156 -94.59648)"/><rect width="262" height="195" x="469" y="509.904" fill="#2f2e41" transform="translate(1051.40391 -87.19257) rotate(90)"/><rect width="262" height="104" x="313" y="373.807" fill="#3f3d56"/><rect width="262" height="104" x="313" y="489.807" fill="#3f3d56"/><rect width="262" height="104" x="313" y="605.807" fill="#3f3d56"/><rect width="262" height="16" x="313" y="417.904" fill="#00d4aa"/><rect width="262" height="16" x="313" y="533.904" fill="#00d4aa"/><rect width="262" height="16" x="313" y="649.904" fill="#00d4aa"/><circle cx="524" cy="388.807" r="6" fill="#00d4aa"/><circle cx="545" cy="388.807" r="6" fill="#00d4aa"/><circle cx="566" cy="388.807" r="6" fill="#00d4aa"/><circle cx="524" cy="502.807" r="6" fill="#00d4aa"/><circle cx="545" cy="502.807" r="6" fill="#00d4aa"/><circle cx="566" cy="502.807" r="6" fill="#00d4aa"/><circle cx="524" cy="616.807" r="6" fill="#00d4aa"/><circle cx="545" cy="616.807" r="6" fill="#00d4aa"/><circle cx="566" cy="616.807" r="6" fill="#00d4aa"/><rect width="888" height="2" y="708.807" fill="#3f3d56"/><path fill="#e6e6e6" d="M397.8787,365.66116v185.9917a14.67525,14.67525,0,0,1-14.67227,14.67231H310.928a14.67656,14.67656,0,0,1-14.6784-14.67231V365.66116a14.67655,14.67655,0,0,1,14.6784-14.67228h8.76786a6.9778,6.9778,0,0,0,6.4551,9.60614h41.20843a6.97774,6.97774,0,0,0,6.45506-9.60614h9.392A14.67524,14.67524,0,0,1,397.8787,365.66116Z" transform="translate(-156 -94.59648)"/><rect width="92" height="128" x="145.064" y="291.91" fill="#fff"/><rect width="36.72" height="2.098" x="171.186" y="379.927" fill="#e6e6e6"/><rect width="56.817" height="2.098" x="171.149" y="387.632" fill="#00d4aa"/><rect width="44.588" height="2.098" x="171.149" y="394.89" fill="#e6e6e6"/><rect width="26.228" height="2.098" x="171.149" y="402.149" fill="#e6e6e6"/><rect width="39.343" height="2.098" x="171.149" y="409.407" fill="#e6e6e6"/><rect width="4.197" height="4.197" x="154.533" y="379.324" fill="#e6e6e6"/><rect width="4.197" height="4.197" x="154.533" y="386.582" fill="#00d4aa"/><rect width="4.197" height="4.197" x="154.533" y="393.841" fill="#e6e6e6"/><rect width="4.197" height="4.197" x="154.533" y="401.1" fill="#e6e6e6"/><rect width="4.197" height="4.197" x="154.533" y="408.358" fill="#e6e6e6"/><rect width="36.998" height="36.998" x="172.751" y="307.91" fill="#e6e6e6"/><rect width="245.884" height="157.475" x="321.111" y=".139" fill="#e6e6e6"/><rect width="203.861" height="77.035" x="339.647" y="44.195" fill="#fff"/><rect width="48.927" height="2.796" x="376.789" y="57.542" fill="#e6e6e6"/><rect width="75.705" height="2.796" x="376.74" y="67.807" fill="#00d4aa"/><rect width="59.411" height="2.796" x="376.74" y="77.479" fill="#e6e6e6"/><rect width="34.948" height="2.796" x="376.74" y="87.151" fill="#e6e6e6"/><rect width="52.422" height="2.796" x="376.74" y="96.822" fill="#e6e6e6"/><rect width="5.592" height="5.592" x="354.601" y="56.738" fill="#e6e6e6"/><rect width="5.592" height="5.592" x="354.601" y="66.409" fill="#00d4aa"/><rect width="5.592" height="5.592" x="354.601" y="76.081" fill="#e6e6e6"/><rect width="5.592" height="5.592" x="354.601" y="85.753" fill="#e6e6e6"/><rect width="5.592" height="5.592" x="354.601" y="95.424" fill="#e6e6e6"/><rect width="50.059" height="50.059" x="483.445" y="53.847" fill="#e6e6e6"/><rect width="245.884" height="10.446" x="321.006" fill="#00d4aa"/><circle cx="328.768" cy="5.341" r="2.097" fill="#fff"/><circle cx="336.117" cy="5.341" r="2.097" fill="#fff"/><circle cx="343.466" cy="5.341" r="2.097" fill="#fff"/><rect width="60" height="31" x="671.648" y="294.807" fill="#e6e6e6"/><rect width="60" height="31" x="671.648" y="405.807" fill="#e6e6e6"/><circle cx="701.648" cy="365.807" r="50" fill="#e6e6e6"/><circle cx="701.648" cy="365.807" r="39" fill="#fff"/><rect width="30.247" height="1.728" x="688.877" y="355.122" fill="#e2e2e2"/><rect width="46.802" height="1.728" x="688.846" y="361.468" fill="#00d4aa"/><rect width="36.728" height="1.728" x="688.846" y="367.447" fill="#e2e2e2"/><rect width="21.605" height="1.728" x="688.846" y="373.426" fill="#e2e2e2"/><rect width="32.407" height="1.728" x="688.846" y="379.405" fill="#e2e2e2"/><rect width="3.457" height="3.457" x="675.16" y="354.625" fill="#e2e2e2"/><rect width="3.457" height="3.457" x="675.16" y="360.604" fill="#00d4aa"/><rect width="3.457" height="3.457" x="675.16" y="366.583" fill="#e2e2e2"/><rect width="3.457" height="3.457" x="675.16" y="372.562" fill="#e2e2e2"/><rect width="3.457" height="3.457" x="675.16" y="378.541" fill="#e2e2e2"/></svg>